<svg version="1.1" xmlns="http://www.w3.org/2000/svg" xmlns:xlink="http://www.w3.org/1999/xlink" x="0px" y="0px" viewBox="0 0 256 256" enable-background="new 0 0 256 256" xml:space="preserve">
<path fill="#000000" d="M150.2,81.1c-15.5,1-28.6,4-34.8,8.1c-6.3,4.1-14.5,13.7-20.9,24.5l-3.3,5.5l-2.1-0.3c-6-0.7-25.7-1.3-36.3-1.1c-32.7,0.8-46.7,6.4-41.9,16.9c2.4,5.2,8.1,10.6,18.9,18c3.2,2.2,6.3,4.4,6.8,4.9c0.8,0.8,1.3,0.9,3.8,0.7c1.6-0.1,4.5-0.8,6.4-1.4l3.6-1.1l0.1-3.5c0.1-4.7,0.8-7.6,2.8-11.8c2.2-4.6,6.4-9.1,10.5-11.1c2.9-1.5,3.5-1.6,7.9-1.6c4.4,0,5,0.1,8,1.5c7.9,3.7,13.6,13.5,13.6,23.3v2.6l21.5-0.3c11.8-0.2,33.5-0.5,48.3-0.6L190,154l0.3-3.4c1.1-11.6,7.7-20.4,17.1-22.9c11.7-3.1,23.3,6.6,25.4,21.2c0.5,3.4,1.3,4.3,4.3,5.1c4.2,1.1,8.3-2.7,8.8-8.2c0.9-8.3-6.5-20.8-21.2-35.9c-2.9-3-5.7-6.2-6.3-7.1c-5-8.2-13.2-14.6-22.6-17.8C186.8,82,165,80.1,150.2,81.1z M176.4,87.2c15.8,1.4,27.8,7.9,35.3,19.2c2.1,3.2,5,9,5,10c0,0.1-12,0.2-26.7,0.2h-26.7l-0.3-3.7c-0.1-2-0.3-8.6-0.3-14.7v-11l3.2-0.2c1.8-0.1,3.6-0.2,4.1-0.2C170.5,86.8,173.4,87,176.4,87.2z M154.2,88l1.8,0.3v14.4v14.4h-26.8c-21.4,0-26.8-0.1-26.8-0.6c0-1.1,3.4-7.6,5.4-10.5c2.4-3.3,7.1-7.9,10.4-10.1c5.3-3.6,13.7-6.7,21-7.6C142.7,87.8,151.8,87.6,154.2,88z"/><path fill="#000000" d="M68.2,131.1c-6.4,1.8-11.5,7.5-13.6,15.1c-0.9,3.4-0.9,10.4,0.1,13.7c4.4,15,19.3,20.2,29.4,10.1c5.5-5.6,8-14.7,6.1-22.9C87.5,135.5,77.9,128.4,68.2,131.1z"/><path fill="#000000" d="M209.3,130.7c-9.9,2.2-16.1,10.8-16.1,22.2c0,12.3,8,22.1,18.2,22.1c6.1,0,10.9-2.6,14.6-8.1c8.5-12.5,3.4-31.6-9.7-35.7C213.4,130.4,211.4,130.2,209.3,130.7z"/>
</svg>
